<svg width="44" height="44" viewBox="0 0 44 44" fill="none" xmlns="http://www.w3.org/2000/svg">
<circle cx="22" cy="22" r="22" fill="#7DBD27"/>
<path d="M22 12C16.48 12 12 16.48 12 22C12 27.52 16.48 32 22 32C27.52 32 32 27.52 32 22C32 16.48 27.52 12 22 12ZM18.73 17.66C19.54 17.66 20.21 18.32 20.21 19.14C20.21 19.95 19.55 20.62 18.73 20.62C17.92 20.62 17.25 19.96 17.25 19.14C17.25 18.32 17.91 17.66 18.73 17.66ZM18.85 25.8C18.7 25.95 18.51 26.02 18.32 26.02C18.13 26.02 17.94 25.95 17.79 25.8C17.5 25.51 17.5 25.03 17.79 24.74L24.34 18.19C24.63 17.9 25.11 17.9 25.4 18.19C25.69 18.48 25.69 18.96 25.4 19.25L18.85 25.8ZM25.27 26.34C24.46 26.34 23.79 25.68 23.79 24.86C23.79 24.05 24.45 23.38 25.27 23.38C26.08 23.38 26.75 24.04 26.75 24.86C26.75 25.68 26.09 26.34 25.27 26.34Z" fill="white"/>
</svg>
