<svg width="44" height="44" viewBox="0 0 44 44" fill="none" xmlns="http://www.w3.org/2000/svg">
<circle cx="22" cy="22" r="22" fill="#7DBD27"/>
<path d="M26.75 13.56V12C26.75 11.59 26.41 11.25 26 11.25C25.59 11.25 25.25 11.59 25.25 12V13.5H18.75V12C18.75 11.59 18.41 11.25 18 11.25C17.59 11.25 17.25 11.59 17.25 12V13.56C14.55 13.81 13.24 15.42 13.04 17.81C13.02 18.1 13.26 18.34 13.54 18.34H30.46C30.75 18.34 30.99 18.09 30.96 17.81C30.76 15.42 29.45 13.81 26.75 13.56Z" fill="white"/>
<path d="M30 19.84H14C13.45 19.84 13 20.29 13 20.84V27C13 30 14.5 32 18 32H26C29.5 32 31 30 31 27V20.84C31 20.29 30.55 19.84 30 19.84ZM19.21 28.21C19.11 28.3 19 28.37 18.88 28.42C18.76 28.47 18.63 28.5 18.5 28.5C18.37 28.5 18.24 28.47 18.12 28.42C18 28.37 17.89 28.3 17.79 28.21C17.61 28.02 17.5 27.76 17.5 27.5C17.5 27.24 17.61 26.98 17.79 26.79C17.89 26.7 18 26.63 18.12 26.58C18.36 26.48 18.64 26.48 18.88 26.58C19 26.63 19.11 26.7 19.21 26.79C19.39 26.98 19.5 27.24 19.5 27.5C19.5 27.76 19.39 28.02 19.21 28.21ZM19.42 24.38C19.37 24.5 19.3 24.61 19.21 24.71C19.11 24.8 19 24.87 18.88 24.92C18.76 24.97 18.63 25 18.5 25C18.37 25 18.24 24.97 18.12 24.92C18 24.87 17.89 24.8 17.79 24.71C17.7 24.61 17.63 24.5 17.58 24.38C17.53 24.26 17.5 24.13 17.5 24C17.5 23.87 17.53 23.74 17.58 23.62C17.63 23.5 17.7 23.39 17.79 23.29C17.89 23.2 18 23.13 18.12 23.08C18.36 22.98 18.64 22.98 18.88 23.08C19 23.13 19.11 23.2 19.21 23.29C19.3 23.39 19.37 23.5 19.42 23.62C19.47 23.74 19.5 23.87 19.5 24C19.5 24.13 19.47 24.26 19.42 24.38ZM22.71 24.71C22.61 24.8 22.5 24.87 22.38 24.92C22.26 24.97 22.13 25 22 25C21.87 25 21.74 24.97 21.62 24.92C21.5 24.87 21.39 24.8 21.29 24.71C21.11 24.52 21 24.26 21 24C21 23.74 21.11 23.48 21.29 23.29C21.39 23.2 21.5 23.13 21.62 23.08C21.86 22.97 22.14 22.97 22.38 23.08C22.5 23.13 22.61 23.2 22.71 23.29C22.89 23.48 23 23.74 23 24C23 24.26 22.89 24.52 22.71 24.71Z" fill="white"/>
</svg>
