<svg width="44" height="44" viewBox="0 0 44 44" fill="none" xmlns="http://www.w3.org/2000/svg">
<circle cx="22" cy="22" r="22" fill="#7DBD27"/>
<path d="M18.3899 28.49V18.33C18.3899 17.93 18.5099 17.54 18.7299 17.21L21.4599 13.15C21.8899 12.5 22.9599 12.04 23.8699 12.38C24.8499 12.71 25.4999 13.81 25.2899 14.79L24.7699 18.06C24.7299 18.36 24.8099 18.63 24.9799 18.84C25.1499 19.03 25.3999 19.15 25.6699 19.15H29.7799C30.5699 19.15 31.2499 19.47 31.6499 20.03C32.0299 20.57 32.0999 21.27 31.8499 21.98L29.3899 29.47C29.0799 30.71 27.7299 31.72 26.3899 31.72H22.4899C21.8199 31.72 20.8799 31.49 20.4499 31.06L19.1699 30.07C18.6799 29.7 18.3899 29.11 18.3899 28.49Z" fill="white"/>
<path d="M15.21 16.38H14.18C12.63 16.38 12 16.98 12 18.46V28.52C12 30 12.63 30.6 14.18 30.6H15.21C16.76 30.6 17.39 30 17.39 28.52V18.46C17.39 16.98 16.76 16.38 15.21 16.38Z" fill="white"/>
</svg>
