<svg width="44" height="44" viewBox="0 0 44 44" fill="none" xmlns="http://www.w3.org/2000/svg">
<circle cx="22" cy="22" r="22" fill="#7DBD27"/>
<path d="M18.2591 31.2448C18.9061 30.5978 19.2778 29.7719 19.3741 28.9184C19.5049 27.7828 19.1263 26.6058 18.2591 25.7386C17.7429 25.2224 17.1097 24.8783 16.4421 24.72C15.1688 24.3965 13.7578 24.7337 12.753 25.7386C12.0578 26.4338 11.6793 27.3216 11.6311 28.237C11.5967 28.6294 11.6311 29.0354 11.7343 29.4277C11.8926 30.0954 12.2368 30.7286 12.753 31.2448C14.274 32.7659 16.7381 32.7659 18.2591 31.2448ZM16.9652 27.7759C17.3644 27.7759 17.6947 28.1063 17.6947 28.5055C17.6879 28.9115 17.3644 29.235 16.9583 29.2419L16.2356 29.235L16.2425 29.9302C16.2356 30.3363 15.9121 30.6597 15.5061 30.6666C15.1 30.6597 14.7765 30.3363 14.7696 29.9302L14.7765 29.235L14.0538 29.2419C13.6477 29.235 13.3242 28.9115 13.3174 28.5055C13.3242 28.3059 13.4068 28.1269 13.5376 27.9961C13.6684 27.8654 13.8473 27.7828 14.0469 27.7759L14.7765 27.7759L14.7765 27.0188C14.7765 26.8123 14.8591 26.6334 14.9898 26.5026C15.1206 26.3718 15.2996 26.2892 15.506 26.2892C15.9052 26.2892 16.2356 26.6196 16.2356 27.0188L16.2356 27.7759L16.9652 27.7759Z" fill="white"/>
<path d="M25.0952 13.8455V17.5442H23.6352V13.8455C23.6352 13.5827 23.4016 13.4561 23.2458 13.4561C23.1972 13.4561 23.1485 13.4659 23.0998 13.4853L15.3811 16.3957C14.8652 16.5904 14.5343 17.077 14.5343 17.6318V18.284C13.6485 18.9459 13.0742 20.0068 13.0742 21.2041V17.6318C13.0742 16.4736 13.7848 15.4418 14.8652 15.033L22.5937 12.1129C22.8078 12.035 23.0317 11.9961 23.2458 11.9961C24.2192 11.9961 25.0952 12.7845 25.0952 13.8455Z" fill="white"/>
<path d="M31.5696 24.1152V25.0886C31.5696 25.3514 31.3651 25.5655 31.0926 25.5753H29.6715C29.1556 25.5753 28.6884 25.1957 28.6495 24.6895C28.6203 24.3878 28.7371 24.1055 28.9317 23.9108C29.107 23.7259 29.3503 23.6285 29.6131 23.6285H31.0829C31.3651 23.6383 31.5696 23.8524 31.5696 24.1152Z" fill="white"/>
<path d="M29.6019 22.6051H30.5947C31.1301 22.6051 31.5681 22.167 31.5681 21.6317V21.2034C31.5681 19.1886 29.9231 17.5436 27.9082 17.5436H16.7341C15.9067 17.5436 15.1475 17.8161 14.5343 18.2833C13.6485 18.9452 13.0742 20.0062 13.0742 21.2034V22.936C13.0742 23.3059 13.4636 23.5395 13.814 23.4227C14.3591 23.2377 14.9333 23.1404 15.5076 23.1404C18.4569 23.1404 20.8611 25.5446 20.8611 28.4939C20.8611 29.1947 20.6762 29.9637 20.3842 30.645C20.2284 30.9954 20.4718 31.414 20.8514 31.414H27.9082C29.9231 31.414 31.5681 29.769 31.5681 27.7541V27.5692C31.5681 27.0338 31.1301 26.5958 30.5947 26.5958H29.7479C28.8135 26.5958 27.918 26.0215 27.6746 25.1163C27.4799 24.3766 27.7136 23.6563 28.2002 23.1891C28.5604 22.8192 29.0568 22.6051 29.6019 22.6051ZM24.2679 22.4104H19.4011C19.002 22.4104 18.671 22.0794 18.671 21.6804C18.671 21.2813 19.002 20.9503 19.4011 20.9503H24.2679C24.6669 20.9503 24.9979 21.2813 24.9979 21.6804C24.9979 22.0794 24.6669 22.4104 24.2679 22.4104Z" fill="white"/>
</svg>
