<svg width="84" height="84" viewBox="0 0 84 84" fill="none" xmlns="http://www.w3.org/2000/svg">
<circle cx="42" cy="42" r="42" fill="#9BD948"/>
<path d="M64.75 48.8252C64.75 57.6294 57.6292 64.7502 48.825 64.7502L51.2137 60.7689" stroke="white" stroke-width="3" stroke-linecap="round" stroke-linejoin="round"/>
<path d="M19.25 35.175C19.25 26.3707 26.3707 19.25 35.175 19.25L32.7862 23.2312" stroke="white" stroke-width="3" stroke-linecap="round" stroke-linejoin="round"/>
<path d="M64.75 24.255V24.5052C64.75 25.1423 64.2495 25.6428 63.6125 25.6428H43.1375C42.5005 25.6428 42 25.1423 42 24.5052V24.255C42 20.251 43.001 19.25 47.0505 19.25H59.6995C63.749 19.25 64.75 20.251 64.75 24.255Z" fill="white"/>
<path d="M43.1375 27.918C42.5005 27.918 42 28.4185 42 29.0555V31.3305V33.5827C42 37.5867 43.001 38.5877 47.0505 38.5877H59.6995C63.749 38.5877 64.75 37.5867 64.75 33.5827V31.3305V29.0555C64.75 28.4185 64.2495 27.918 63.6125 27.918H43.1375Z" fill="white"/>
<path d="M42 50.4176V50.6678C42 51.3048 41.4995 51.8053 40.8625 51.8053H20.3875C19.7505 51.8053 19.25 51.3048 19.25 50.6678V50.4176C19.25 46.4136 20.251 45.4126 24.3005 45.4126H36.9495C40.999 45.4126 42 46.4136 42 50.4176Z" fill="white"/>
<path d="M20.3875 54.0806C19.7505 54.0806 19.25 54.5811 19.25 55.2181V57.4931V59.7453C19.25 63.7493 20.251 64.7503 24.3005 64.7503H36.9495C40.999 64.7503 42 63.7493 42 59.7453V57.4931V55.2181C42 54.5811 41.4995 54.0806 40.8625 54.0806H20.3875Z" fill="white"/>
</svg>
