<svg width="85" height="86" viewBox="0 0 85 86" fill="none" xmlns="http://www.w3.org/2000/svg">
<circle cx="42.1145" cy="43.0002" r="42.1145" fill="#9BD948"/>
<path d="M32.2281 23.4188V19.997C32.2281 19.0617 31.4525 18.2861 30.5172 18.2861C29.5819 18.2861 28.8063 19.0617 28.8063 19.997V23.5557C29.3766 23.4873 29.9013 23.4188 30.5172 23.4188H32.2281Z" fill="white"/>
<path d="M50.4776 23.5557V19.997C50.4776 19.0617 49.702 18.2861 48.7667 18.2861C47.8314 18.2861 47.0558 19.0617 47.0558 19.997V23.4188H48.7667C49.3826 23.4188 49.9073 23.4873 50.4776 23.5557Z" fill="white"/>
<path d="M63.1156 49.5843C61.359 48.1928 59.1463 47.3716 56.751 47.3716C54.3557 47.3716 52.0974 48.2156 50.3408 49.63C47.9684 51.5006 46.4856 54.4205 46.4856 57.637C46.4856 59.5532 47.0331 61.401 47.9684 62.9066C48.6984 64.0928 49.6337 65.1421 50.7514 65.9406C52.4395 67.1724 54.4926 67.9024 56.751 67.9024C59.3516 67.9024 61.7012 66.9443 63.5034 65.3475C64.3018 64.6859 64.9861 63.8647 65.5336 62.9294C66.4689 61.401 67.0164 59.5532 67.0164 57.637C67.0164 54.3749 65.488 51.4549 63.1156 49.5843ZM56.751 62.5188C56.751 59.8269 54.5611 57.637 51.8692 57.637C54.5611 57.637 56.751 55.447 56.751 52.7552C56.751 55.447 58.941 57.637 61.6328 57.637C58.941 57.637 56.751 59.8269 56.751 62.5188Z" fill="white"/>
<path d="M50.4776 23.5558V26.8407C50.4776 27.776 49.702 28.5517 48.7667 28.5517C47.8314 28.5517 47.0558 27.776 47.0558 26.8407V23.4189H32.228V26.8407C32.228 27.776 31.4524 28.5517 30.5171 28.5517C29.5818 28.5517 28.8062 27.776 28.8062 26.8407V23.5558C22.0766 24.1717 19.1111 28.506 19.1111 34.825V54.2152C19.1111 61.0588 22.5329 65.6212 30.5171 65.6212H39.9385C41.6722 65.6212 42.8356 63.6822 42.4022 61.9941C42.0828 60.7622 41.9231 59.4847 41.9231 58.2073C41.9231 53.4624 44.0446 49.0825 47.7174 46.1853C50.3864 44.0182 53.8082 42.8092 57.3212 42.8092H57.4125C58.8496 42.8092 60.1727 41.7598 60.1727 40.3227V34.825C60.1727 28.506 57.2072 24.1717 50.4776 23.5558ZM35.0795 53.6449H30.5171C29.5818 53.6449 28.8062 52.8693 28.8062 51.934C28.8062 50.9987 29.5818 50.2231 30.5171 50.2231H35.0795C36.0148 50.2231 36.7904 50.9987 36.7904 51.934C36.7904 52.8693 36.0148 53.6449 35.0795 53.6449ZM41.9231 42.2389H30.5171C29.5818 42.2389 28.8062 41.4633 28.8062 40.528C28.8062 39.5927 29.5818 38.8171 30.5171 38.8171H41.9231C42.8584 38.8171 43.634 39.5927 43.634 40.528C43.634 41.4633 42.8584 42.2389 41.9231 42.2389Z" fill="white"/>
</svg>
